<svg width="2232" height="1091" viewBox="0 0 2232 1091" fill="none" xmlns="http://www.w3.org/2000/svg">
<g clip-path="url(#clip0_4_5)">
<g style="mix-blend-mode:multiply" opacity="0.2">
<path d="M1385.06 813.01H1449.55L1542.34 788.15L1481.26 771.8H1385.06V813.01Z" fill="#242B52"/>
</g>
<path d="M1385.06 813.01L1301.63 790.66V780.91L1385.06 803.26V813.01Z" fill="#444051"/>
<path d="M1385.06 813.01L1468.49 790.66V780.91L1385.06 803.26V813.01Z" fill="#001230"/>
<path d="M1385.06 807.28L1292.33 782.44V484.36L1385.06 509.21V807.28Z" fill="#E6E7E8"/>
<path d="M1385.06 807.28L1477.79 782.44V484.36L1385.06 509.21V807.28Z" fill="#D0D2D3"/>
<path d="M1477.79 484.36L1385.06 459.52L1292.33 484.36L1385.06 509.21L1477.79 484.36Z" fill="#7D8191"/>
<path d="M1373.66 772L1303.73 753.26V601.15L1373.66 619.89V772Z" fill="#D0D2D3"/>
<path d="M1303.73 601.15V753.26L1311.89 751.08V603.34L1303.73 601.15Z" fill="#B4BDC5"/>
<path d="M1373.66 772L1303.73 753.26L1311.89 751.08L1373.66 767.63V772Z" fill="white"/>
<path d="M1394.15 574.39L1432 564.25V521.5L1394.15 531.64V574.39Z" fill="#001230"/>
<path d="M1432 521.5V564.25L1427.59 563.07V522.68L1432 521.5Z" fill="#B4BDC5"/>
<path d="M1394.15 574.39L1432 564.25L1427.59 563.07L1394.15 572.03V574.39Z" fill="#E6E7E8"/>
<path d="M1367.85 706.51L1317.88 693.12V688.15L1367.85 701.54V706.51Z" fill="#43596D"/>
<path d="M1367.85 759.8L1317.88 746.42V741.44L1367.85 754.83V759.8Z" fill="#43596D"/>
<path d="M1367.85 749.15L1317.88 735.76V730.78L1367.85 744.17V749.15Z" fill="#43596D"/>
<path d="M1367.85 738.49L1317.88 725.1V720.13L1367.85 733.52V738.49Z" fill="#43596D"/>
<path d="M1367.85 727.83L1317.88 714.44V709.47L1367.85 722.86V727.83Z" fill="#43596D"/>
<path d="M1367.85 717.17L1317.88 703.78V698.81L1367.85 712.2V717.17Z" fill="#43596D"/>
<path d="M1367.85 642.16L1317.88 628.77V623.8L1367.85 637.19V642.16Z" fill="#43596D"/>
<path d="M1367.85 695.46L1317.88 682.07V677.1L1367.85 690.49V695.46Z" fill="#43596D"/>
<path d="M1367.85 684.8L1317.88 671.41V666.44L1367.85 679.83V684.8Z" fill="#43596D"/>
<path d="M1367.85 674.14L1317.88 660.75V655.78L1367.85 669.17V674.14Z" fill="#43596D"/>
<path d="M1367.85 663.48L1317.88 650.09V645.12L1367.85 658.51V663.48Z" fill="#43596D"/>
<path d="M1367.85 652.82L1317.88 639.43V634.46L1367.85 647.85V652.82Z" fill="#43596D"/>
<path d="M1373.66 610.83L1303.73 592.09V513.12L1373.66 531.86V610.83Z" fill="#43596D"/>
<path d="M1303.73 513.12V592.09L1311.89 589.9L1333.21 521.02L1303.73 513.12Z" fill="#B4BDC5"/>
<path d="M1373.66 610.83L1303.73 592.09L1311.89 589.9L1373.66 606.46V610.83Z" fill="white"/>
<path d="M1373.66 583.96L1323.22 570.45L1334.47 533.3L1373.71 543.82L1373.66 583.96Z" fill="#001230"/>
<path d="M1385.06 505.88L1293.02 481.22V370.56L1385.06 395.23V505.88Z" fill="#00A88A"/>
<path d="M1385.06 505.88L1477.1 481.22V370.56L1385.06 395.23V505.88Z" fill="#00908B"/>
<path d="M1477.1 370.56L1385.06 345.9L1293.02 370.56L1385.06 395.23L1477.1 370.56Z" fill="#00C48B"/>
<g style="mix-blend-mode:multiply" opacity="0.1">
<path d="M1385.06 807.28L1477.79 782.44V484.36L1385.06 807.28Z" fill="#242B52"/>
</g>
<path d="M1353.21 434.19L1337.91 430.09V397.39L1314.6 438.37L1329.9 442.47V475.18L1353.21 434.19Z" fill="white"/>
<path d="M1449.29 424.6L1434.86 428.47V397.62L1412.87 448.06L1427.31 444.19V475.04L1449.29 424.6Z" fill="white"/>
<path d="M1324.73 576.73L1322.12 576.03L1322.9 573.59L1325.51 574.28L1324.73 576.73Z" fill="#001230"/>
<path d="M1328.97 577.86L1326.36 577.16L1327.14 574.72L1329.75 575.41L1328.97 577.86Z" fill="#001230"/>
<path d="M1333.21 578.99L1330.6 578.29L1331.38 575.84L1333.99 576.54L1333.21 578.99Z" fill="#001230"/>
<path d="M1337.46 580.12L1334.85 579.42L1335.63 576.97L1338.24 577.67L1337.46 580.12Z" fill="#001230"/>
<path d="M1341.7 581.24L1339.09 580.55L1339.87 578.1L1342.48 578.8L1341.7 581.24Z" fill="#001230"/>
<path d="M1323.33 581.09L1320.72 580.4L1321.5 577.95L1324.12 578.65L1323.33 581.09Z" fill="#001230"/>
<path d="M1327.58 582.22L1324.97 581.53L1325.75 579.08L1328.36 579.78L1327.58 582.22Z" fill="#001230"/>
<path d="M1331.82 583.35L1329.21 582.66L1329.99 580.21L1332.6 580.9L1331.82 583.35Z" fill="#001230"/>
<path d="M1336.06 584.48L1333.45 583.79L1334.23 581.34L1336.85 582.03L1336.06 584.48Z" fill="#001230"/>
<path d="M1340.31 585.61L1337.7 584.91L1338.48 582.47L1341.09 583.16L1340.31 585.61Z" fill="#001230"/>
<path d="M1321.94 585.46L1319.33 584.76L1320.11 582.32L1322.72 583.01L1321.94 585.46Z" fill="#001230"/>
<path d="M1326.18 586.59L1323.57 585.89L1324.35 583.44L1326.97 584.14L1326.18 586.59Z" fill="#001230"/>
<path d="M1330.43 587.72L1327.82 587.02L1328.6 584.57L1331.21 585.27L1330.43 587.72Z" fill="#001230"/>
<path d="M1334.67 588.84L1332.06 588.15L1332.84 585.7L1335.45 586.4L1334.67 588.84Z" fill="#001230"/>
<path d="M1338.92 589.97L1336.3 589.28L1337.08 586.83L1339.7 587.53L1338.92 589.97Z" fill="#001230"/>
<path d="M1320.55 589.82L1317.94 589.13L1318.72 586.68L1321.33 587.38L1320.55 589.82Z" fill="#001230"/>
<path d="M1324.79 590.95L1322.18 590.26L1322.96 587.81L1325.57 588.5L1324.79 590.95Z" fill="#001230"/>
<path d="M1329.04 592.08L1326.42 591.39L1327.21 588.94L1329.82 589.63L1329.04 592.08Z" fill="#001230"/>
<path d="M1333.28 593.21L1330.67 592.51L1331.45 590.07L1334.06 590.76L1333.28 593.21Z" fill="#001230"/>
<path d="M1337.52 594.34L1334.91 593.64L1335.69 591.2L1338.3 591.89L1337.52 594.34Z" fill="#001230"/>
<path d="M1354.77 582.34C1355.11 583.1 1354.77 584.17 1353.99 584.72C1353.22 585.28 1352.32 585.12 1351.98 584.36C1351.64 583.6 1351.98 582.53 1352.76 581.98C1353.53 581.42 1354.43 581.58 1354.77 582.34Z" fill="#00C48B"/>
<path d="M1358.9 583.47C1359.24 584.23 1358.9 585.3 1358.12 585.85C1357.35 586.41 1356.45 586.25 1356.11 585.49C1355.77 584.73 1356.11 583.66 1356.89 583.11C1357.66 582.55 1358.56 582.71 1358.9 583.47Z" fill="#00A88A"/>
<g style="mix-blend-mode:multiply" opacity="0.2">
<path d="M2031.23 985.96H2095.71L2188.51 961.1L2127.43 944.75H2031.23V985.96Z" fill="#242B52"/>
</g>
<path d="M2031.23 985.96L1947.8 963.61V953.86L2031.23 976.21V985.96Z" fill="#444051"/>
<path d="M2031.23 985.96L2114.65 963.61V953.86L2031.23 976.21V985.96Z" fill="#001230"/>
<path d="M2031.23 980.23L1938.5 955.39V657.31L2031.23 682.16V980.23Z" fill="#E6E7E8"/>
<path d="M2031.23 980.23L2123.95 955.39V657.31L2031.23 682.16V980.23Z" fill="#D0D2D3"/>
<path d="M2123.95 657.31L2031.23 632.47L1938.5 657.31L2031.23 682.16L2123.95 657.31Z" fill="#7D8191"/>
<path d="M2019.83 944.95L1949.9 926.21V774.1L2019.83 792.84V944.95Z" fill="#D0D2D3"/>
<path d="M1949.9 774.1V926.21L1958.05 924.03V776.28L1949.9 774.1Z" fill="#B4BDC5"/>
<path d="M2019.83 944.95L1949.9 926.21L1958.05 924.03L2019.83 940.58V944.95Z" fill="white"/>
<path d="M2040.31 747.34L2078.17 737.2V694.45L2040.31 704.59V747.34Z" fill="#001230"/>
<path d="M2078.17 694.45V737.2L2073.75 736.02V695.63L2078.17 694.45Z" fill="#B4BDC5"/>
<path d="M2040.31 747.34L2078.17 737.2L2073.75 736.02L2040.31 744.98V747.34Z" fill="#E6E7E8"/>
<path d="M2014.01 879.46L1964.05 866.07V861.1L2014.01 874.49V879.46Z" fill="#43596D"/>
<path d="M2014.01 932.75L1964.05 919.37V914.39L2014.01 927.78V932.75Z" fill="#43596D"/>
<path d="M2014.01 922.09L1964.05 908.71V903.73L2014.01 917.12V922.09Z" fill="#43596D"/>
<path d="M2014.01 911.44L1964.05 898.05V893.08L2014.01 906.47V911.44Z" fill="#43596D"/>
<path d="M2014.01 900.78L1964.05 887.39V882.42L2014.01 895.81V900.78Z" fill="#43596D"/>
<path d="M2014.01 890.12L1964.05 876.73V871.76L2014.01 885.15V890.12Z" fill="#43596D"/>
<path d="M2014.01 815.11L1964.05 801.72V796.75L2014.01 810.14V815.11Z" fill="#43596D"/>
<path d="M2014.01 868.41L1964.05 855.02V850.05L2014.01 863.44V868.41Z" fill="#43596D"/>
<path d="M2014.01 857.75L1964.05 844.36V839.39L2014.01 852.78V857.75Z" fill="#43596D"/>
<path d="M2014.01 847.09L1964.05 833.7V828.73L2014.01 842.12V847.09Z" fill="#43596D"/>
<path d="M2014.01 836.43L1964.05 823.04V818.07L2014.01 831.46V836.43Z" fill="#43596D"/>
<path d="M2014.01 825.77L1964.05 812.38V807.41L2014.01 820.8V825.77Z" fill="#43596D"/>
<path d="M2019.83 783.78L1949.9 765.04V686.07L2019.83 704.81V783.78Z" fill="#43596D"/>
<path d="M1949.9 686.07V765.04L1958.05 762.85L1979.37 693.97L1949.9 686.07Z" fill="#B4BDC5"/>
<path d="M2019.83 783.78L1949.9 765.04L1958.05 762.85L2019.83 779.41V783.78Z" fill="white"/>
<path d="M2019.83 756.91L1969.39 743.4L1980.63 706.25L2019.88 716.77L2019.83 756.91Z" fill="#001230"/>
<path d="M2031.23 678.83L1939.18 654.17V543.51L2031.23 568.18V678.83Z" fill="#00A88A"/>
<path d="M2031.23 678.83L2123.27 654.17V543.51L2031.23 568.18V678.83Z" fill="#00908B"/>
<path d="M2123.27 543.51L2031.23 518.85L1939.18 543.51L2031.23 568.18L2123.27 543.51Z" fill="#00C48B"/>
<g style="mix-blend-mode:multiply" opacity="0.1">
<path d="M2031.23 980.23L2123.95 955.39V657.31L2031.23 980.23Z" fill="#242B52"/>
</g>
<path d="M1999.38 607.14L1984.08 603.04V570.34L1960.77 611.32L1976.07 615.42V648.13L1999.38 607.14Z" fill="white"/>
<path d="M2095.46 597.55L2081.02 601.42V570.57L2059.04 621.01L2073.47 617.14V647.99L2095.46 597.55Z" fill="white"/>
<path d="M2059.24 720.9C2102.83 730.9 2103.37 816.59 2103.37 912.92C2103.37 988.56 2280.19 969.86 2210.88 1002.58C2117.01 1046.89 1997.83 1052.51 2031.22 1013.1C2078.37 957.46 2065.16 853.36 2059.2 757.5" stroke="#231F32" stroke-width="8.93" stroke-miterlimit="10"/>
<path d="M2043.91 723.67L2059.23 723.03L2065.17 733.35L2065.16 759.79L2054.24 760.33L2049.15 738.61L2043.98 737.68L2043.91 723.67Z" fill="#43596D"/>
<path d="M1970.89 749.68L1968.28 748.98L1969.06 746.54L1971.67 747.23L1970.89 749.68Z" fill="#001230"/>
<path d="M1975.14 750.81L1972.52 750.11L1973.31 747.67L1975.92 748.36L1975.14 750.81Z" fill="#001230"/>
<path d="M1979.38 751.94L1976.77 751.24L1977.55 748.79L1980.16 749.49L1979.38 751.94Z" fill="#001230"/>
<path d="M1983.62 753.06L1981.01 752.37L1981.79 749.92L1984.4 750.62L1983.62 753.06Z" fill="#001230"/>
<path d="M1987.87 754.19L1985.25 753.5L1986.04 751.05L1988.65 751.75L1987.87 754.19Z" fill="#001230"/>
<path d="M1969.5 754.04L1966.89 753.35L1967.67 750.9L1970.28 751.6L1969.5 754.04Z" fill="#001230"/>
<path d="M1973.74 755.17L1971.13 754.48L1971.91 752.03L1974.52 752.72L1973.74 755.17Z" fill="#001230"/>
<path d="M1977.99 756.3L1975.38 755.61L1976.16 753.16L1978.77 753.85L1977.99 756.3Z" fill="#001230"/>
<path d="M1982.23 757.43L1979.62 756.73L1980.4 754.29L1983.01 754.98L1982.23 757.43Z" fill="#001230"/>
<path d="M1986.47 758.56L1983.86 757.86L1984.64 755.42L1987.25 756.11L1986.47 758.56Z" fill="#001230"/>
<path d="M1968.11 758.41L1965.5 757.71L1966.28 755.27L1968.89 755.96L1968.11 758.41Z" fill="#001230"/>
<path d="M1972.35 759.54L1969.74 758.84L1970.52 756.39L1973.13 757.09L1972.35 759.54Z" fill="#001230"/>
<path d="M1976.59 760.67L1973.98 759.97L1974.76 757.52L1977.37 758.22L1976.59 760.67Z" fill="#001230"/>
<path d="M1980.84 761.79L1978.23 761.1L1979.01 758.65L1981.62 759.35L1980.84 761.79Z" fill="#001230"/>
<path d="M1985.08 762.92L1982.47 762.23L1983.25 759.78L1985.86 760.48L1985.08 762.92Z" fill="#001230"/>
<path d="M1966.71 762.77L1964.1 762.08L1964.88 759.63L1967.5 760.32L1966.71 762.77Z" fill="#001230"/>
<path d="M1970.96 763.9L1968.35 763.21L1969.13 760.76L1971.74 761.45L1970.96 763.9Z" fill="#001230"/>
<path d="M1975.2 765.03L1972.59 764.33L1973.37 761.89L1975.98 762.58L1975.2 765.03Z" fill="#001230"/>
<path d="M1979.44 766.16L1976.83 765.46L1977.61 763.02L1980.23 763.71L1979.44 766.16Z" fill="#001230"/>
<path d="M1983.69 767.29L1981.08 766.59L1981.86 764.15L1984.47 764.84L1983.69 767.29Z" fill="#001230"/>
<path d="M2000.93 755.29C2001.27 756.05 2000.93 757.12 2000.15 757.67C1999.38 758.23 1998.48 758.07 1998.14 757.31C1997.8 756.55 1998.14 755.48 1998.92 754.93C1999.69 754.37 2000.59 754.53 2000.93 755.29Z" fill="#00C48B"/>
<path d="M2005.07 756.42C2005.41 757.18 2005.07 758.25 2004.29 758.8C2003.52 759.36 2002.62 759.2 2002.28 758.44C2001.94 757.68 2002.28 756.61 2003.06 756.06C2003.84 755.51 2004.73 755.66 2005.07 756.42Z" fill="#00A88A"/>
<g style="mix-blend-mode:multiply" opacity="0.2">
<path d="M92.73 467.11H157.22L250.01 442.25L188.93 425.9H92.73V467.11Z" fill="#242B52"/>
</g>
<path d="M92.73 467.11L9.30005 444.76V435.01L92.73 457.36V467.11Z" fill="#444051"/>
<path d="M92.73 467.11L176.16 444.76V435.01L92.73 457.36V467.11Z" fill="#001230"/>
<path d="M92.73 461.38L0 436.54V138.46L92.73 163.31V461.38Z" fill="#E6E7E8"/>
<path d="M92.73 461.38L185.46 436.54V138.46L92.73 163.31V461.38Z" fill="#D0D2D3"/>
<path d="M185.46 138.46L92.73 113.62L0 138.46L92.73 163.31L185.46 138.46Z" fill="#7D8191"/>
<path d="M81.33 426.1L11.4 407.36V255.25L81.33 273.99V426.1Z" fill="#D0D2D3"/>
<path d="M11.4 255.25V407.36L19.55 405.18V257.44L11.4 255.25Z" fill="#B4BDC5"/>
<path d="M81.33 426.1L11.4 407.36L19.55 405.18L81.33 421.73V426.1Z" fill="white"/>
<path d="M101.81 228.49L139.67 218.35V175.6L101.81 185.74V228.49Z" fill="#001230"/>
<path d="M139.67 175.6V218.35L135.26 217.17V176.78L139.67 175.6Z" fill="#B4BDC5"/>
<path d="M101.81 228.49L139.67 218.35L135.26 217.17L101.81 226.13V228.49Z" fill="#E6E7E8"/>
<path d="M75.52 360.61L25.55 347.22V342.25L75.52 355.64V360.61Z" fill="#43596D"/>
<path d="M75.52 413.9L25.55 400.52V395.54L75.52 408.93V413.9Z" fill="#43596D"/>
<path d="M75.52 403.25L25.55 389.86V384.89L75.52 398.28V403.25Z" fill="#43596D"/>
<path d="M75.52 392.59L25.55 379.2V374.23L75.52 387.62V392.59Z" fill="#43596D"/>
<path d="M75.52 381.93L25.55 368.54V363.57L75.52 376.96V381.93Z" fill="#43596D"/>
<path d="M75.52 371.27L25.55 357.88V352.91L75.52 366.3V371.27Z" fill="#43596D"/>
<path d="M75.52 296.26L25.55 282.87V277.9L75.52 291.29V296.26Z" fill="#43596D"/>
<path d="M75.52 349.56L25.55 336.17V331.2L75.52 344.59V349.56Z" fill="#43596D"/>
<path d="M75.52 338.9L25.55 325.51V320.54L75.52 333.93V338.9Z" fill="#43596D"/>
<path d="M75.52 328.24L25.55 314.85V309.88L75.52 323.27V328.24Z" fill="#43596D"/>
<path d="M75.52 317.58L25.55 304.19V299.22L75.52 312.61V317.58Z" fill="#43596D"/>
<path d="M75.52 306.92L25.55 293.53V288.56L75.52 301.95V306.92Z" fill="#43596D"/>
<path d="M81.33 264.93L11.4 246.19V167.22L81.33 185.96V264.93Z" fill="#43596D"/>
<path d="M11.4 167.22V246.19L19.55 244L40.88 175.12L11.4 167.22Z" fill="#B4BDC5"/>
<path d="M81.33 264.93L11.4 246.19L19.55 244L81.33 260.56V264.93Z" fill="white"/>
<path d="M81.33 238.06L30.89 224.55L42.14 187.4L81.38 197.92L81.33 238.06Z" fill="#001230"/>
<path d="M92.7299 159.98L0.689941 135.32V24.66L92.7299 49.33V159.98Z" fill="#00A88A"/>
<path d="M92.7299 159.98L184.77 135.32V24.66L92.7299 49.33V159.98Z" fill="#00908B"/>
<path d="M184.77 24.66L92.7299 0L0.689941 24.66L92.7299 49.33L184.77 24.66Z" fill="#00C48B"/>
<g style="mix-blend-mode:multiply" opacity="0.1">
<path d="M92.73 461.38L185.46 436.54V138.46L92.73 461.38Z" fill="#242B52"/>
</g>
<path d="M60.88 88.3L45.58 84.19V51.49L22.27 92.47L37.57 96.57V129.28L60.88 88.3Z" fill="white"/>
<path d="M156.96 78.7L142.53 82.57V51.72L120.54 102.16L134.98 98.29V129.15L156.96 78.7Z" fill="white"/>
<path d="M120.74 202.05C164.33 212.05 164.87 297.74 164.87 394.07C164.87 469.71 341.69 451.01 272.38 483.73C178.51 528.04 59.33 533.66 92.72 494.25C139.87 438.61 126.66 334.51 120.7 238.65" stroke="#231F32" stroke-width="8.93" stroke-miterlimit="10"/>
<path d="M105.42 204.82L120.73 204.18L126.67 214.5V240.94L115.74 241.48L110.66 219.76L105.48 218.83L105.42 204.82Z" fill="#43596D"/>
<path d="M32.4 230.83L29.79 230.14L30.57 227.69L33.18 228.38L32.4 230.83Z" fill="#001230"/>
<path d="M36.64 231.96L34.03 231.26L34.81 228.82L37.42 229.51L36.64 231.96Z" fill="#001230"/>
<path d="M40.88 233.09L38.27 232.39L39.05 229.95L41.66 230.64L40.88 233.09Z" fill="#001230"/>
<path d="M45.13 234.22L42.52 233.52L43.3 231.07L45.91 231.77L45.13 234.22Z" fill="#001230"/>
<path d="M49.37 235.34L46.76 234.65L47.54 232.2L50.15 232.9L49.37 235.34Z" fill="#001230"/>
<path d="M31 235.19L28.39 234.5L29.17 232.05L31.78 232.75L31 235.19Z" fill="#001230"/>
<path d="M35.25 236.32L32.64 235.63L33.42 233.18L36.03 233.88L35.25 236.32Z" fill="#001230"/>
<path d="M39.49 237.45L36.88 236.76L37.66 234.31L40.27 235L39.49 237.45Z" fill="#001230"/>
<path d="M43.73 238.58L41.12 237.89L41.9 235.44L44.51 236.13L43.73 238.58Z" fill="#001230"/>
<path d="M47.98 239.71L45.37 239.01L46.15 236.57L48.76 237.26L47.98 239.71Z" fill="#001230"/>
<path d="M29.61 239.56L27 238.86L27.78 236.42L30.39 237.11L29.61 239.56Z" fill="#001230"/>
<path d="M33.85 240.69L31.24 239.99L32.02 237.55L34.64 238.24L33.85 240.69Z" fill="#001230"/>
<path d="M38.1 241.82L35.49 241.12L36.27 238.67L38.88 239.37L38.1 241.82Z" fill="#001230"/>
<path d="M42.34 242.94L39.73 242.25L40.51 239.8L43.12 240.5L42.34 242.94Z" fill="#001230"/>
<path d="M46.58 244.07L43.97 243.38L44.75 240.93L47.37 241.63L46.58 244.07Z" fill="#001230"/>
<path d="M28.22 243.92L25.61 243.23L26.39 240.78L29 241.48L28.22 243.92Z" fill="#001230"/>
<path d="M32.46 245.05L29.85 244.36L30.63 241.91L33.24 242.6L32.46 245.05Z" fill="#001230"/>
<path d="M36.71 246.18L34.09 245.49L34.87 243.04L37.49 243.73L36.71 246.18Z" fill="#001230"/>
<path d="M40.95 247.31L38.34 246.61L39.12 244.17L41.73 244.86L40.95 247.31Z" fill="#001230"/>
<path d="M45.19 248.44L42.58 247.74L43.36 245.3L45.97 245.99L45.19 248.44Z" fill="#001230"/>
<path d="M62.43 236.44C62.77 237.2 62.43 238.27 61.65 238.82C60.88 239.38 59.98 239.22 59.64 238.46C59.3 237.7 59.64 236.63 60.42 236.08C61.19 235.52 62.09 235.68 62.43 236.44Z" fill="#00C48B"/>
<path d="M66.57 237.57C66.91 238.33 66.57 239.4 65.79 239.95C65.02 240.51 64.12 240.35 63.78 239.59C63.44 238.83 63.78 237.76 64.56 237.21C65.33 236.65 66.23 236.81 66.57 237.57Z" fill="#00A88A"/>
<g style="mix-blend-mode:multiply" opacity="0.2">
<path d="M738.89 640.06H803.38L896.18 615.2L835.1 598.85H738.89V640.06Z" fill="#242B52"/>
</g>
<path d="M738.89 640.06L655.47 617.71V607.96L738.89 630.31V640.06Z" fill="#444051"/>
<path d="M738.89 640.06L822.32 617.71V607.96L738.89 630.31V640.06Z" fill="#001230"/>
<path d="M738.89 634.33L646.17 609.49V311.41L738.89 336.26V634.33Z" fill="#E6E7E8"/>
<path d="M738.89 634.33L831.62 609.49V311.41L738.89 336.26V634.33Z" fill="#D0D2D3"/>
<path d="M831.62 311.41L738.89 286.57L646.17 311.41L738.89 336.26L831.62 311.41Z" fill="#7D8191"/>
<path d="M727.49 599.05L657.57 580.31V428.2L727.49 446.94V599.05Z" fill="#D0D2D3"/>
<path d="M657.57 428.2V580.31L665.72 578.13V430.39L657.57 428.2Z" fill="#B4BDC5"/>
<path d="M727.49 599.05L657.57 580.31L665.72 578.13L727.49 594.68V599.05Z" fill="white"/>
<path d="M747.98 401.44L785.84 391.3V348.55L747.98 358.69V401.44Z" fill="#001230"/>
<path d="M785.84 348.55V391.3L781.42 390.12V349.73L785.84 348.55Z" fill="#B4BDC5"/>
<path d="M747.98 401.44L785.84 391.3L781.42 390.12L747.98 399.08V401.44Z" fill="#E6E7E8"/>
<path d="M721.68 533.56L671.72 520.17V515.2L721.68 528.59V533.56Z" fill="#43596D"/>
<path d="M721.68 586.85L671.72 573.47V568.49L721.68 581.88V586.85Z" fill="#43596D"/>
<path d="M721.68 576.2L671.72 562.81V557.84L721.68 571.22V576.2Z" fill="#43596D"/>
<path d="M721.68 565.54L671.72 552.15V547.18L721.68 560.57V565.54Z" fill="#43596D"/>
<path d="M721.68 554.88L671.72 541.49V536.52L721.68 549.91V554.88Z" fill="#43596D"/>
<path d="M721.68 544.22L671.72 530.83V525.86L721.68 539.25V544.22Z" fill="#43596D"/>
<path d="M721.68 469.21L671.72 455.82V450.85L721.68 464.24V469.21Z" fill="#43596D"/>
<path d="M721.68 522.51L671.72 509.12V504.15L721.68 517.54V522.51Z" fill="#43596D"/>
<path d="M721.68 511.85L671.72 498.46V493.49L721.68 506.88V511.85Z" fill="#43596D"/>
<path d="M721.68 501.19L671.72 487.8V482.83L721.68 496.22V501.19Z" fill="#43596D"/>
<path d="M721.68 490.53L671.72 477.14V472.17L721.68 485.56V490.53Z" fill="#43596D"/>
<path d="M721.68 479.87L671.72 466.48V461.51L721.68 474.9V479.87Z" fill="#43596D"/>
<path d="M727.49 437.88L657.57 419.14V340.17L727.49 358.91V437.88Z" fill="#43596D"/>
<path d="M657.57 340.17V419.14L665.72 416.95L687.04 348.07L657.57 340.17Z" fill="#B4BDC5"/>
<path d="M727.49 437.88L657.57 419.14L665.72 416.95L727.49 433.51V437.88Z" fill="white"/>
<path d="M727.49 411.01L677.06 397.5L688.3 360.35L727.55 370.87L727.49 411.01Z" fill="#001230"/>
<path d="M738.89 332.93L646.85 308.27V197.61L738.89 222.28V332.93Z" fill="#00A88A"/>
<path d="M738.89 332.93L830.94 308.27V197.61L738.89 222.28V332.93Z" fill="#00908B"/>
<path d="M830.94 197.61L738.89 172.95L646.85 197.61L738.89 222.28L830.94 197.61Z" fill="#00C48B"/>
<g style="mix-blend-mode:multiply" opacity="0.1">
<path d="M738.89 634.33L831.62 609.49V311.41L738.89 634.33Z" fill="#242B52"/>
</g>
<path d="M707.05 261.24L691.74 257.14V224.44L668.43 265.42L683.74 269.52V302.23L707.05 261.24Z" fill="white"/>
<path d="M803.13 251.65L788.69 255.52V224.67L766.7 275.11L781.14 271.24V302.09L803.13 251.65Z" fill="white"/>
<path d="M766.91 375C810.5 385 811.04 470.69 811.04 567.02C811.04 642.66 987.86 623.96 918.55 656.68C824.68 700.99 705.5 706.61 738.89 667.2C786.04 611.56 772.83 507.46 766.87 411.6" stroke="#231F32" stroke-width="8.93" stroke-miterlimit="10"/>
<path d="M751.58 377.77L766.89 377.13L772.84 387.45L772.83 413.89L761.91 414.43L756.82 392.71L751.64 391.78L751.58 377.77Z" fill="#43596D"/>
<path d="M678.56 403.78L675.95 403.09L676.73 400.64L679.34 401.33L678.56 403.78Z" fill="#001230"/>
<path d="M682.81 404.91L680.19 404.21L680.97 401.77L683.59 402.46L682.81 404.91Z" fill="#001230"/>
<path d="M687.05 406.04L684.44 405.34L685.22 402.9L687.83 403.59L687.05 406.04Z" fill="#001230"/>
<path d="M691.29 407.17L688.68 406.47L689.46 404.02L692.07 404.72L691.29 407.17Z" fill="#001230"/>
<path d="M695.54 408.29L692.92 407.6L693.71 405.15L696.32 405.85L695.54 408.29Z" fill="#001230"/>
<path d="M677.17 408.14L674.56 407.45L675.34 405L677.95 405.7L677.17 408.14Z" fill="#001230"/>
<path d="M681.41 409.27L678.8 408.58L679.58 406.13L682.19 406.83L681.41 409.27Z" fill="#001230"/>
<path d="M685.66 410.4L683.04 409.71L683.83 407.26L686.44 407.95L685.66 410.4Z" fill="#001230"/>
<path d="M689.9 411.53L687.29 410.84L688.07 408.39L690.68 409.08L689.9 411.53Z" fill="#001230"/>
<path d="M694.14 412.66L691.53 411.96L692.31 409.52L694.92 410.21L694.14 412.66Z" fill="#001230"/>
<path d="M675.78 412.51L673.17 411.81L673.95 409.37L676.56 410.06L675.78 412.51Z" fill="#001230"/>
<path d="M680.02 413.64L677.41 412.94L678.19 410.5L680.8 411.19L680.02 413.64Z" fill="#001230"/>
<path d="M684.26 414.77L681.65 414.07L682.43 411.62L685.04 412.32L684.26 414.77Z" fill="#001230"/>
<path d="M688.51 415.89L685.9 415.2L686.68 412.75L689.29 413.45L688.51 415.89Z" fill="#001230"/>
<path d="M692.75 417.02L690.14 416.33L690.92 413.88L693.53 414.58L692.75 417.02Z" fill="#001230"/>
<path d="M674.38 416.87L671.77 416.18L672.55 413.73L675.16 414.43L674.38 416.87Z" fill="#001230"/>
<path d="M678.63 418L676.02 417.31L676.8 414.86L679.41 415.55L678.63 418Z" fill="#001230"/>
<path d="M682.87 419.13L680.26 418.44L681.04 415.99L683.65 416.68L682.87 419.13Z" fill="#001230"/>
<path d="M687.11 420.26L684.5 419.56L685.28 417.12L687.89 417.81L687.11 420.26Z" fill="#001230"/>
<path d="M691.36 421.39L688.75 420.69L689.53 418.25L692.14 418.94L691.36 421.39Z" fill="#001230"/>
<path d="M708.6 409.39C708.94 410.15 708.6 411.22 707.82 411.77C707.05 412.33 706.15 412.17 705.81 411.41C705.47 410.65 705.81 409.58 706.59 409.03C707.36 408.47 708.26 408.63 708.6 409.39Z" fill="#00C48B"/>
<path d="M712.74 410.52C713.08 411.28 712.74 412.35 711.96 412.9C711.19 413.46 710.29 413.3 709.95 412.54C709.61 411.78 709.95 410.71 710.73 410.16C711.5 409.6 712.4 409.76 712.74 410.52Z" fill="#00A88A"/>
<g opacity="0.1">
<path d="M1270.73 828.47C1238.29 819.78 1185.22 819.78 1152.78 828.47L513.41 999.79C480.97 1008.48 480.97 1022.7 513.41 1031.39L704.92 1082.7C737.36 1091.39 790.77 1092.8 823.62 1085.84C1123.95 1043.31 1419.18 941.77 1452.68 913.5C1486.67 884.82 1463.13 879.27 1430.7 870.58L1270.73 828.46V828.47Z" fill="#081900"/>
</g>
<g style="mix-blend-mode:multiply" opacity="0.5">
<g style="mix-blend-mode:multiply" opacity="0.5">
<path d="M1186.56 851.95C1154.12 843.26 1101.05 843.26 1068.61 851.95L520.39 998.85C487.95 1007.54 487.95 1021.76 520.39 1030.45L663.68 1068.8C696.12 1077.49 730.68 1079.5 749.52 1078.22C768.36 1076.94 791.74 1072.99 835.02 1057.98C901.9 1034.79 1019.59 1001.38 1067.43 987.84C1122.91 972.14 1168.33 967.5 1215.04 955.39C1290.76 935.76 1324.98 920.38 1335.38 913.34C1345.78 906.3 1349.71 895.67 1317.28 886.98L1186.56 851.95Z" fill="#081900"/>
</g>
</g>
<path d="M612.59 747.33L584.11 769.56C584.11 769.56 587.05 753.37 592.85 747.33C601.6 738.21 612.58 747.33 612.58 747.33H612.59Z" fill="#4862B6"/>
<path d="M1132.74 855.5C1122.22 894.75 1136.99 932.8 1165.72 940.5C1194.45 948.2 1226.26 922.62 1236.78 883.37C1247.3 844.12 1232.53 806.07 1203.8 798.37C1175.07 790.67 1143.26 816.25 1132.74 855.5Z" fill="#081900"/>
<path d="M1165.7 940.516L1208.1 951.878L1246.18 809.751L1203.78 798.389L1165.7 940.516Z" fill="#081900"/>
<path d="M686.68 975.23C676.16 1014.48 690.93 1052.53 719.66 1060.23C748.39 1067.93 780.2 1042.35 790.72 1003.1C801.24 963.85 786.47 925.8 757.74 918.1C729.01 910.4 697.2 935.98 686.68 975.23Z" fill="#081900"/>
<path d="M719.666 1060.22L762.07 1071.59L800.152 929.46L757.748 918.098L719.666 1060.22Z" fill="#081900"/>
<path d="M1284.79 878.57L1210.15 854.99L886.81 953.53L838.01 1015.17L732.11 997.96L742.55 908.06L1235.41 772.18L1309.96 821.67L1284.79 878.57Z" fill="#081900"/>
<path d="M1328.24 739.69L1317.97 686.08C1317.97 686.08 1310.84 683.12 1298.22 678.97C1226.39 653.9 975.71 573.27 831.88 614.89C703.72 651.98 577.05 775.88 577.05 775.88C577.05 775.88 502.05 814.6 464.93 844.42C425.16 876.36 425.61 945.5 434.68 979.3C441.7 1005.45 619.71 1046.32 660.44 1046C672.12 1048.43 691.35 1046.5 707.58 1041.04L715.66 1038.91C714.5 1020.62 715.27 1003.16 719.19 983.44C728.24 938.01 766.28 907.57 797.68 912.73C827.6 917.64 847.93 950.5 838.01 1015.17L883.22 993.97C957.8 968.99 1038.65 946.9 1127.5 928.52L1160.58 924.59C1160.58 904.41 1161.99 886.64 1167.51 864.4C1178.64 819.54 1216.18 791.97 1246.71 800.16C1275.49 807.87 1289.71 840.1 1284.78 878.58C1294.71 869.45 1303.95 862.57 1319.84 843.95C1325.59 837.22 1335.4 800.16 1335.37 765.46C1335.37 754.66 1328.23 739.7 1328.23 739.7L1328.24 739.69Z" fill="#415ABF"/>
<path d="M1021.25 671.13C1129.43 634.57 1202.59 654.03 1260.02 668.09L1262.6 667.04C1164.18 635.33 957.35 578.58 831.87 614.9C799.63 624.23 767.48 639.06 737.42 656.02C735.79 657.07 734.16 658.12 732.53 659.2C705.11 675.17 680.34 691.62 657.57 708.43C638.34 722.74 621.67 736.34 608.56 747.53C597.97 756.63 587.78 765.81 577.92 775.04C577.35 775.59 577.04 775.89 577.04 775.89C597.55 809.87 673.14 836.79 816.74 840.1C816.74 840.1 894.85 713.86 1021.24 671.14L1021.25 671.13Z" fill="#0B2000"/>
<path d="M838.01 847.06C965.31 808.75 1093.03 772.05 1207.77 724.54C1231.82 714.58 1242.26 697.15 1246.72 680.24C1246.72 680.24 1147.57 641.39 1038.98 677.54C893.95 725.83 838.01 847.05 838.01 847.05V847.06Z" fill="#0B2000"/>
<path d="M1174.02 866.56C1163.5 905.81 1178.27 943.86 1207 951.56C1235.73 959.26 1267.54 933.68 1278.06 894.43C1288.58 855.18 1273.81 817.13 1245.08 809.43C1216.35 801.73 1184.54 827.31 1174.02 866.56Z" fill="#284A66"/>
<path d="M1187.2 870.09C1179.35 899.39 1190.37 927.8 1211.82 933.55C1233.27 939.3 1257.02 920.2 1264.87 890.9C1272.72 861.6 1261.7 833.19 1240.25 827.44C1218.8 821.69 1195.05 840.79 1187.2 870.09Z" fill="#B4B5B4"/>
<path d="M1249.37 878.11L1259.19 893.62C1261.88 897.87 1258.1 905.3 1253.43 904.93L1236.4 903.58C1234.37 903.42 1232.19 904.88 1230.88 907.27L1219.92 927.33C1216.91 932.83 1210.79 932.02 1210.6 926.1L1209.9 904.49C1209.82 901.91 1208.47 899.99 1206.49 899.62L1189.89 896.51C1185.34 895.66 1185.34 887.72 1189.89 884.43L1206.49 872.42C1208.47 870.99 1209.82 868.35 1209.9 865.72L1210.6 843.74C1210.79 837.71 1216.91 833.62 1219.92 837.51L1230.88 851.7C1232.19 853.39 1234.36 853.68 1236.4 852.43L1253.43 841.96C1258.1 839.09 1261.88 844.49 1259.19 850.19L1249.37 870.96C1248.2 873.44 1248.2 876.26 1249.37 878.11Z" fill="#1B355D"/>
<path d="M1217.54 878.22C1215.82 884.63 1218.23 890.84 1222.93 892.1C1227.62 893.36 1232.82 889.18 1234.53 882.77C1236.25 876.36 1233.84 870.15 1229.14 868.89C1224.45 867.63 1219.25 871.81 1217.54 878.22Z" fill="#B4B5B4"/>
<path d="M727.96 986.29C717.44 1025.54 732.21 1063.59 760.94 1071.29C789.67 1078.99 821.48 1053.41 832 1014.16C842.52 974.91 827.75 936.86 799.02 929.16C770.29 921.46 738.48 947.04 727.96 986.29Z" fill="#284A66"/>
<path d="M741.14 989.82C733.29 1019.12 744.31 1047.53 765.76 1053.28C787.21 1059.03 810.96 1039.93 818.81 1010.63C826.66 981.33 815.64 952.92 794.19 947.17C772.74 941.42 748.99 960.52 741.14 989.82Z" fill="#B4B5B4"/>
<path d="M803.31 997.84L813.13 1013.35C815.82 1017.6 812.04 1025.03 807.37 1024.66L790.34 1023.31C788.31 1023.15 786.13 1024.6 784.82 1027L773.86 1047.06C770.85 1052.56 764.73 1051.75 764.54 1045.82L763.84 1024.21C763.76 1021.63 762.41 1019.71 760.43 1019.34L743.83 1016.23C739.28 1015.38 739.28 1007.44 743.83 1004.15L760.43 992.14C762.41 990.71 763.76 988.06 763.84 985.44L764.54 963.46C764.73 957.43 770.85 953.34 773.86 957.23L784.82 971.42C786.13 973.11 788.3 973.4 790.34 972.15L807.37 961.68C812.04 958.81 815.82 964.21 813.13 969.91L803.31 990.68C802.14 993.16 802.14 995.98 803.31 997.83V997.84Z" fill="#1B355D"/>
<path d="M771.48 997.95C769.76 1004.36 772.17 1010.57 776.87 1011.83C781.56 1013.09 786.76 1008.91 788.47 1002.5C790.19 996.09 787.78 989.88 783.08 988.62C778.39 987.36 773.19 991.54 771.48 997.95Z" fill="#B4B5B4"/>
<path d="M1049.73 662.55C1042.01 664.77 1035.85 666.46 1026.1 669.56C964.08 646.96 897.68 629.34 827.24 616.28L852.59 609.87C917.71 620.39 983.07 638.7 1049.73 662.55Z" fill="#284A66"/>
<path d="M765.04 641.39L744.38 652.16C783.03 674.12 858.75 691.57 948.41 706.83C953.61 703.32 959.81 699.69 966.99 695.51C884.11 679.46 813.13 661.89 765.04 641.4V641.39Z" fill="#284A66"/>
<path d="M588.56 776.71C615.22 807.9 695.04 824.94 810.24 832.54C810.24 832.54 822.8 800.83 732.54 780.2C636.3 758.2 588.56 776.71 588.56 776.71Z" fill="#284A66"/>
<path d="M1029.63 680.8L1040.25 785.17L1063.17 777.66L1050.45 673.98C1043.68 675.96 1036.78 678.16 1029.63 680.79V680.8Z" fill="#284A66"/>
<path d="M1189.8 731.85L1205.4 725.51L1186.85 665.79L1172.26 663.99L1189.8 731.85Z" fill="#284A66"/>
<path d="M1040.38 677.33C1044.67 710.71 1051.89 781.39 1051.89 781.39C1051.89 781.39 1062.19 794.31 1060.14 813.71C1056.82 845.14 1052.57 901.48 1055.46 922.98" stroke="#21321F" stroke-width="1.07" stroke-miterlimit="10"/>
<path d="M838.41 846.69C852.98 862.19 855.76 920.91 865.15 974.22L1119.19 905.81C1129.92 902.94 1139.9 893.5 1145.65 880.79L1199.91 774.61C1205.97 761.23 1206.67 742.5 1197.72 728.65L1179.81 665.51" stroke="#21321F" stroke-width="1.07" stroke-miterlimit="10"/>
<path d="M816.26 839.93C816.26 839.93 815.18 846.21 805.7 851.39C795.17 857.14 703.41 895.55 680.43 906.29C651.58 919.78 613.1 928.33 587.61 925.37C547.6 920.72 489.2 904.43 475.24 897.45C460 889.83 444.01 872.49 451.43 864.65" stroke="#21321F" stroke-width="1.07" stroke-miterlimit="10"/>
<path d="M1328.24 739.69C1328.24 739.69 1289.11 758.13 1284.72 760.05C1280.33 761.97 1277.85 766.99 1275.99 773.83C1274.13 780.67 1267.38 812.01 1267.38 812.01" stroke="#21321F" stroke-width="1.07" stroke-miterlimit="10"/>
<path d="M700.9 897.17C700.9 897.17 721.38 904.75 726.74 908.74C733.33 913.64 743.41 923.43 744.37 934.52" stroke="#21321F" stroke-width="1.07" stroke-miterlimit="10"/>
<path opacity="0.1" d="M599.82 1014.34C606.17 1013.66 591.13 991.16 588.98 987.13C570.72 952.84 532.02 947.86 493.14 937.35C458.28 927.93 452.06 941.21 447.48 947.9C445.71 950.48 439.02 963.61 443.18 966.82C452.85 974.3 475.11 983.98 507.34 993.28C542.21 1003.34 592.47 1015.14 599.83 1014.34H599.82Z" fill="black"/>
<path d="M480.82 900.66C480.82 900.66 466.87 873.91 468.49 857.44C469.51 847.04 470.84 840.09 470.84 840.09C470.84 840.09 441.19 861.9 444.06 876.52C447.09 891.94 480.82 900.67 480.82 900.67V900.66Z" fill="#B4B5B4"/>
<path d="M527.69 899.17C525.73 903.29 521.41 905.33 518.04 903.73C514.68 902.13 513.54 897.49 515.51 893.36C517.47 889.24 521.79 887.2 525.16 888.8C528.52 890.4 529.66 895.04 527.69 899.17Z" fill="#284A66"/>
<path opacity="0.1" d="M851.65 862.41C1033.67 808.96 1226.03 737.98 1317.97 686.07L1328.24 739.68C1328.24 739.68 1296.3 755.73 1262.6 769.42C1249.56 774.72 1201.1 775.25 1180.79 812C1148.03 871.27 1145.26 890.76 1131.3 900.18C1119.15 908.38 1072.73 919.24 1001.54 937.38C962.56 947.32 865.14 974.22 865.14 974.22C859.35 941.93 851.62 912.72 839.96 889.77C834.47 878.96 840.02 865.82 851.65 862.4V862.41Z" fill="black"/>
<path opacity="0.1" d="M708.42 947.31C699.7 963.79 694.39 981.3 693.2 1000.09C692.76 1007.07 686.26 1012.05 679.38 1010.79C662.75 1007.74 648.48 1002.32 638.21 992.89C632.27 987.43 632.49 977.96 638.72 972.82C657.27 957.51 677.99 946.4 700.07 937.92C705.84 935.7 711.31 941.84 708.42 947.31Z" fill="black"/>
<path opacity="0.1" d="M1290.41 812.01C1280.06 795.78 1278.85 782.66 1294.83 772.98C1310.8 763.3 1319.28 752.52 1319.79 770.71C1320.73 803.74 1309.72 830.29 1303.25 842.93C1302.04 845.29 1298.51 844.69 1298.15 842.07C1297.25 835.51 1296.11 820.94 1290.42 812.01H1290.41Z" fill="black"/>
<path d="M1321.88 706.83L1303.59 735.02L1317.15 745.64L1328.54 740.33L1321.88 706.83Z" fill="#081900"/>
<path d="M700.9 896.99C663.98 896.65 608.49 900.66 555.57 921.08C555.57 921.08 602.49 933.05 633.9 926.77C665.31 920.49 700.9 896.99 700.9 896.99Z" fill="#B4B5B4"/>
<path d="M769.53 692.85L819.78 706.31L838.86 688.89L788.61 675.42L769.53 692.85Z" fill="#284A66"/>
<path d="M1015.02 820.93L1049.42 808.31L1048.14 816.55L1013.15 829.65L1015.02 820.93Z" fill="#081900"/>
<path d="M1016.53 819.17L1050.94 806.55L1049.65 814.8L1014.66 827.89L1016.53 819.17Z" fill="#284A66"/>
<path d="M1162.33 765.98L1196.33 752.31L1195.3 760.59L1160.72 774.75L1162.33 765.98Z" fill="#081900"/>
<path d="M1163.79 764.18L1197.79 750.51L1196.76 758.79L1162.18 772.95L1163.79 764.18Z" fill="#284A66"/>
<mask id="mask0_4_5" style="mask-type:luminance" maskUnits="userSpaceOnUse" x="429" y="603" width="907" height="452">
<path d="M1328.24 739.69L1317.97 686.08C1317.97 686.08 1310.84 683.12 1298.22 678.97C1226.39 653.9 975.71 573.27 831.88 614.89C703.72 651.98 577.05 775.88 577.05 775.88C577.05 775.88 502.05 814.6 464.93 844.42C425.16 876.36 425.61 949.75 434.68 983.55C441.7 1009.7 619.71 1050.57 660.44 1050.25C672.12 1052.68 691.77 1054.54 709.22 1054.31L715.66 1038.91C714.5 1020.62 715.27 1003.16 719.19 983.44C728.24 938.01 766.28 907.57 797.68 912.73C827.6 917.64 847.93 950.5 838.01 1015.17L883.22 993.97C957.8 968.99 1038.65 946.9 1127.5 928.52L1160.58 924.59C1160.58 904.41 1161.99 886.64 1167.51 864.4C1178.64 819.54 1216.18 791.97 1246.71 800.16C1275.49 807.87 1289.71 840.1 1284.78 878.58C1294.71 869.45 1303.95 862.57 1319.84 843.95C1325.59 837.22 1335.4 800.16 1335.37 765.46C1335.37 754.66 1328.23 739.7 1328.23 739.7L1328.24 739.69Z" fill="white"/>
</mask>
<g mask="url(#mask0_4_5)">
<path opacity="0.1" d="M428.48 948.4C424.99 843.01 550.75 815.57 632.91 813.93C688.5 754.6 827.24 583.74 1024.5 603.16L1125.7 589.67L1012.77 577.02L779.97 609.87L389.39 884.9L428.47 948.41L428.48 948.4Z" fill="white"/>
</g>
<path opacity="0.1" d="M848.04 840.09C1020.14 724.41 1104.73 700.61 1241.08 683.2C1241.08 683.2 1147.95 646.09 1041.19 682.23C901.32 729.58 848.04 840.08 848.04 840.08V840.09Z" fill="white"/>
<path d="M1240.92 678.2C1236.37 694.91 1225.9 712.05 1202.14 721.89C1089.87 768.37 965.17 804.52 840.6 841.94C838.86 845.23 838.01 847.06 838.01 847.06C965.31 808.75 1093.03 772.05 1207.77 724.54C1231.82 714.58 1242.26 697.15 1246.72 680.24C1246.72 680.24 1244.7 679.45 1240.92 678.2Z" fill="#081900"/>
<path opacity="0.1" d="M857.84 848.83C857.84 848.83 854.75 849.63 862.52 854.9C870.99 860.64 901.21 870.43 908.98 867.33C919.88 862.98 923.39 839.18 917.81 837.32C903.82 832.64 898.89 828.14 894.2 828.41C889.51 828.68 857.83 848.84 857.83 848.84L857.84 848.83Z" fill="black"/>
<path d="M845.52 845.03C845.52 845.03 869.13 820.1 880.19 819.89C888.8 819.73 908.89 820.53 913.54 831.93C918.19 843.33 904.15 849.46 886.29 853.13C868.43 856.79 856.23 854 851.9 851.67C847.57 849.34 845.52 845.03 845.52 845.03Z" fill="#4862B6"/>
<mask id="mask1_4_5" style="mask-type:luminance" maskUnits="userSpaceOnUse" x="845" y="819" width="70" height="36">
<path d="M845.52 845.03C845.52 845.03 869.13 820.1 880.19 819.89C888.8 819.73 908.89 820.53 913.54 831.93C918.19 843.33 904.15 849.46 886.29 853.13C868.43 856.79 856.23 854 851.9 851.67C847.57 849.34 845.52 845.03 845.52 845.03Z" fill="white"/>
</mask>
<g mask="url(#mask1_4_5)">
<path opacity="0.1" d="M903.19 820.84C903.19 820.84 904.73 833.21 884.74 838C874.35 840.49 841.45 845.54 841.45 845.54L849.46 860.07L915.6 861.32L924.17 832.85L912.07 816.51L903.19 820.84Z" fill="black"/>
</g>
<path d="M1415.93 544.22C1459.52 554.22 1447.2 642.67 1449.29 718.28C1450.55 763.71 1480.84 810.15 1465.21 855.11C1450.02 898.77 1415.36 926.46 1376.1 916.74C1306.83 899.59 1298.44 792.95 1284.82 770.54" stroke="#21321F" stroke-width="8.93" stroke-miterlimit="10"/>
<path d="M1254.39 745.94L1271.07 737.45C1273.38 736.27 1276.19 737.45 1276.98 739.92L1280.57 751.25C1281.18 753.18 1280.33 755.27 1278.54 756.23L1262.34 764.84C1260.08 766.04 1257.27 764.95 1256.41 762.54L1252.35 751.1C1251.64 749.11 1252.52 746.91 1254.4 745.95L1254.39 745.94Z" fill="#081900"/>
<path d="M1256.34 747.33L1269.84 740.07L1279.69 746.77L1291.21 770.57L1281.62 775.81L1267.57 758.49L1262.51 759.91L1256.34 747.33Z" fill="#6B6D42"/>
<path d="M1252 744.47L1256.41 734.57C1257.02 733.2 1258.09 734.38 1258.66 737.05L1261.26 749.29C1261.7 751.38 1261.68 753.7 1261.22 754.8L1256.98 764.81C1256.39 766.21 1255.33 765.12 1254.75 762.52L1251.98 750.18C1251.5 748.04 1251.51 745.6 1252.01 744.48L1252 744.47Z" fill="#23409A"/>
</g>
<defs>
<clipPath id="clip0_4_5">
<rect width="2231.45" height="1090.27" fill="white"/>
</clipPath>
</defs>
</svg>
